<svg width="47" height="54" viewBox="0 0 47 54" fill="none" xmlns="http://www.w3.org/2000/svg">
<path d="M31.164 16.2826V3.88199L43.5647 16.2826M15.3814 0.5C12.8787 0.5 10.8721 2.50665 10.8721 5.00932V41.0839C10.8721 42.2799 11.3472 43.4268 12.1928 44.2725C13.0385 45.1181 14.1854 45.5932 15.3814 45.5932H42.4373C43.6333 45.5932 44.7803 45.1181 45.6259 44.2725C46.4716 43.4268 46.9467 42.2799 46.9467 41.0839V14.028L33.4187 0.5H15.3814Z" fill="#686868"/>
<path d="M20.292 24.1894V11.7887L32.6926 24.1894M4.50932 8.40674C2.00665 8.40674 0 10.4134 0 12.9161V48.9907C0 50.1866 0.475088 51.3336 1.32075 52.1792C2.16641 53.0249 3.31338 53.5 4.50932 53.5H31.5653C32.7612 53.5 33.9082 53.0249 34.7538 52.1792C35.5995 51.3336 36.0746 50.1866 36.0746 48.9907V21.9347L22.5466 8.40674H4.50932Z" fill="black"/>
</svg>
