<svg width="336" height="215" viewBox="0 0 336 215" fill="none" xmlns="http://www.w3.org/2000/svg">
<path d="M55.877 40.9355C55.877 37.9859 58.2681 35.5947 61.2177 35.5947H301.077C304.027 35.5947 306.418 37.9859 306.418 40.9355V204.934H55.877V40.9355Z" fill="#1A202C"/>
<path d="M57.8184 41.0651C57.8184 38.9199 59.5574 37.1809 61.7026 37.1809H300.679C302.824 37.1809 304.563 38.9199 304.563 41.0651V198.192H57.8184V41.0651Z" fill="black"/>
<rect width="233.053" height="142.987" transform="translate(64.6162 47.3301)" fill="white" fill-opacity="0.2"/>
<path d="M105.671 130.286C99.6505 130.286 96.1505 126.03 96.1505 119.786C96.1505 113.542 99.6505 109.286 105.671 109.286C110.319 109.286 113.455 111.806 114.659 115.782L111.691 116.594C110.879 113.794 108.891 112.058 105.671 112.058C101.387 112.058 99.2585 115.166 99.2305 119.786C99.2305 124.406 101.387 127.514 105.671 127.514C108.891 127.514 110.879 125.778 111.691 122.978L114.659 123.79C113.455 127.766 110.319 130.286 105.671 130.286ZM124.303 130.286C119.767 130.286 116.911 126.982 116.911 122.306C116.911 117.546 119.851 114.326 124.303 114.326C128.867 114.326 131.723 117.63 131.723 122.306C131.723 127.038 128.811 130.286 124.303 130.286ZM124.303 127.514C127.215 127.514 128.615 125.386 128.615 122.306C128.615 119.142 127.187 117.098 124.303 117.098C121.363 117.098 120.019 119.226 120.019 122.306C120.019 125.47 121.475 127.514 124.303 127.514ZM150.746 114.354C153.994 114.354 155.87 116.482 155.87 119.73V129.866H152.93V120.43C152.93 118.274 151.698 116.986 149.878 116.986C148.226 116.986 146.798 118.134 146.798 120.402V129.866H143.886V120.514C143.886 118.302 142.682 116.986 140.806 116.986C138.958 116.986 137.754 118.358 137.754 120.402V129.866H134.786V114.746H137.39V116.37C138.37 115.138 139.938 114.354 141.73 114.354C143.83 114.354 145.342 115.278 146.126 116.818C147.05 115.278 148.758 114.354 150.746 114.354ZM166.561 114.326C170.789 114.326 173.449 117.742 173.449 122.306C173.449 126.842 170.817 130.286 166.617 130.286C164.909 130.286 163.509 129.754 162.445 128.802V136.586H159.477V114.746H162.081V116.118C163.173 114.998 164.685 114.326 166.561 114.326ZM166.197 127.626C168.997 127.626 170.341 125.302 170.341 122.306C170.341 119.338 168.997 116.986 166.113 116.986C163.341 116.986 162.081 119.142 162.081 122.306C162.081 125.414 163.313 127.626 166.197 127.626ZM188.3 117.21C188.776 118.218 188.832 119.31 188.832 120.542V129.866H186.256V127.654C185.024 129.418 183.26 130.286 180.796 130.286C177.464 130.286 175.7 128.214 175.7 125.75C175.7 123.454 176.932 122.026 179.284 121.27C181.02 120.766 183.512 120.43 185.976 120.066C185.864 118.022 184.884 117.042 182.56 117.042C180.964 117.042 179.508 117.714 178.976 119.422L176.26 118.582C176.988 115.978 179.088 114.326 182.56 114.326C185.276 114.326 187.376 115.222 188.3 117.21ZM181.328 127.906C183.82 127.906 185.276 126.366 185.64 124.91C185.892 124.21 185.92 123.23 185.92 122.53C183.652 122.866 181.944 123.09 180.684 123.482C179.48 123.902 178.584 124.518 178.584 125.722C178.584 126.898 179.452 127.906 181.328 127.906ZM196.485 115.614C197.633 114.746 199.285 114.494 200.629 114.746V117.49C199.649 117.238 198.333 117.294 197.353 117.966C195.925 118.862 195.421 120.458 195.421 122.222V129.866H192.481V114.746H195.085V117.154C195.449 116.538 195.925 115.978 196.485 115.614ZM205.305 123.118C205.529 125.946 207.013 127.514 209.561 127.514C211.381 127.514 212.753 126.674 213.509 125.106L216.365 126.03C215.189 128.746 212.641 130.286 209.729 130.286C205.193 130.286 202.169 127.094 202.169 122.446C202.169 117.49 205.137 114.326 209.561 114.326C214.181 114.326 216.897 117.714 216.589 123.118H205.305ZM209.673 116.93C207.209 116.93 205.753 118.302 205.389 120.85H213.593C213.285 118.19 211.997 116.93 209.673 116.93ZM232.35 114.326C236.578 114.326 239.238 117.742 239.238 122.306C239.238 126.842 236.606 130.286 232.406 130.286C230.698 130.286 229.298 129.754 228.234 128.802V136.586H225.266V114.746H227.87V116.118C228.962 114.998 230.474 114.326 232.35 114.326ZM231.986 127.626C234.786 127.626 236.13 125.302 236.13 122.306C236.13 119.338 234.786 116.986 231.902 116.986C229.13 116.986 227.87 119.142 227.87 122.306C227.87 125.414 229.102 127.626 231.986 127.626ZM252.493 109.706H255.461V129.866H252.857V128.466C251.765 129.614 250.253 130.286 248.321 130.286C244.121 130.286 241.489 126.842 241.489 122.306C241.489 117.742 244.149 114.326 248.377 114.326C250.057 114.326 251.429 114.858 252.493 115.782V109.706ZM248.741 127.626C251.625 127.626 252.857 125.414 252.857 122.306C252.857 119.142 251.597 116.986 248.825 116.986C245.941 116.986 244.597 119.338 244.597 122.306C244.597 125.302 245.941 127.626 248.741 127.626ZM265.748 111.694C264.376 111.694 263.704 112.422 263.704 113.654V114.746H267.512V117.098H263.704V129.866H260.764V117.098H258.272V114.746H260.764V114.214C260.764 113.066 260.792 111.582 261.744 110.546C262.892 109.258 264.488 109.286 265.608 109.286H267.512V111.694H265.748Z" fill="white"/>
<g clip-path="url(#clip0_17_62)">
<path d="M44.5765 66.3145L59.9221 71.2028L81.025 110.036L44.4295 129.923L44.4984 130.05L81.2189 110.095L60.117 71.2634L44.5765 66.3145Z" fill="#909090"/>
<path d="M44.3856 66.253L17.583 80.8181L44.3041 129.99L81.0245 110.035L59.9227 71.2038L44.3856 66.253Z" fill="#F4F4F4"/>
<path d="M18.7477 83.6059L7.49707 89.7197L14.029 101.74L49.4184 82.5084L42.8865 70.4884L18.7477 83.6059Z" fill="#7A7B7C"/>
<path d="M49.496 82.2023L14.1471 101.412L7.61035 89.3828L42.9593 70.1735L49.496 82.2023Z" fill="#DD2025"/>
<path d="M20.4358 85.0476L18.1346 86.2981L22.7271 94.7493L24.5371 93.7657L22.9881 90.9152L23.4002 90.7209C23.7858 90.5045 24.1329 90.2257 24.4274 89.8959C24.6896 89.612 24.8903 89.277 25.017 88.9118C25.1571 88.5562 25.2104 88.1723 25.1724 87.792C25.072 87.1822 24.8385 86.6021 24.4885 86.0928C24.2688 85.7124 23.9935 85.367 23.6716 85.068C23.4171 84.8638 23.1227 84.715 22.8073 84.6312C22.4919 84.5473 22.1625 84.5302 21.8402 84.5809C21.5604 84.6212 21.2856 84.691 21.0205 84.7891C20.8184 84.8598 20.6223 84.9465 20.434 85.0485M22.2961 89.2683L22.1394 89.3535L20.7234 86.7477L21.0632 86.5631C21.2073 86.4707 21.3703 86.412 21.5401 86.3911C21.71 86.3703 21.8824 86.3879 22.0445 86.4426C22.4104 86.6109 22.7111 86.8945 22.9006 87.2499C23.136 87.6831 23.3493 88.0757 23.1087 88.5645C22.9114 88.8726 22.6297 89.1183 22.2961 89.2683ZM26.5522 81.6941C26.3568 81.8003 26.1743 81.9178 26.0433 81.9958L25.63 82.234L24.2567 82.9803L28.8493 91.4315L30.4656 90.5532C31.0918 90.2335 31.6497 89.7947 32.1081 89.2615C32.4733 88.8252 32.7234 88.3043 32.8356 87.7464C32.9404 87.1904 32.9199 86.6179 32.7757 86.0708C32.6179 85.4494 32.3801 84.8511 32.0684 84.2908C31.7414 83.6069 31.3275 82.9679 30.8369 82.3898C30.446 81.9812 29.9646 81.6702 29.4313 81.482C29.0082 81.3253 28.5569 81.2598 28.1067 81.2896C27.7206 81.3142 27.3388 81.3853 26.9698 81.5014C26.8253 81.5518 26.6855 81.6148 26.5521 81.6897M29.9985 88.7955L29.8224 88.8912L26.8908 83.4965L26.9137 83.4841C27.2539 83.2449 27.6568 83.1108 28.0725 83.0984C28.415 83.1593 28.7402 83.2939 29.0257 83.4927C29.3298 83.6999 29.5865 83.9693 29.7789 84.2829C30.0053 84.6617 30.1617 84.9872 30.3042 85.2495C30.4749 85.5482 30.6197 85.8609 30.7369 86.1843C30.8481 86.5209 30.909 86.872 30.9178 87.2264C30.898 87.572 30.797 87.9081 30.6231 88.2075C30.4826 88.4663 30.2609 88.6718 29.9921 88.7922M35.1905 77.0387L30.912 79.3637L35.5046 87.8149L37.3146 86.8313L35.4929 83.479L37.7817 82.2352L36.9283 80.6647L34.6394 81.9085L33.5755 79.9506L36.0404 78.6111L35.1869 77.0406" fill="#464648"/>
<path d="M57.889 100.547C57.889 100.547 62.949 96.4796 63.991 98.397C65.0329 100.314 61.1317 101.424 57.889 100.547ZM53.8186 102.949C53.0334 103.63 52.3211 104.391 51.693 105.219L51.5361 103.252C51.3793 101.284 50.936 98.7271 50.936 98.7271C52.5436 99.6873 54.2434 100.484 56.0098 101.106C55.2467 101.681 54.5158 102.297 53.8205 102.952L53.8186 102.949ZM45.3775 92.7119C44.4695 91.041 44.7622 90.2913 45.183 90.0626C45.6038 89.8339 46.1875 89.779 46.9917 91.2212C47.6472 92.7546 48.1232 94.3586 48.4103 96.0013C47.1345 95.1854 46.0904 94.0547 45.3786 92.7181L45.3775 92.7119ZM47.2537 115.675C44.9721 115.581 48.5819 109.512 49.4931 108.884C49.4887 108.889 49.6422 115.773 47.2537 115.675ZM65.7536 97.7333C65.6403 97.5668 64.4227 95.7039 60.9991 97.6715C59.5396 98.4318 58.1497 99.3191 56.8457 100.323C54.7046 99.6821 52.6588 98.7574 50.763 97.5736C50.4144 95.4808 49.7857 93.4445 48.8939 91.5194C47.6947 89.4344 46.5311 88.4976 44.9208 89.3955C43.3106 90.2933 43.8449 91.8389 45.2041 93.8324C46.1829 95.1365 47.3286 96.3066 48.6119 97.3126C48.6119 97.3126 49.1295 100.049 49.3991 102.903C49.6688 105.758 49.6528 107.34 49.6528 107.34C48.236 108.835 47.0683 110.548 46.1945 112.412C45.4776 114.551 45.4513 115.909 46.779 116.531C47.9235 117.067 50.3383 116.017 50.9315 112.199C51.2658 110.21 51.4692 108.2 51.5403 106.185C51.5403 106.185 54.2135 103.617 55.0624 102.85C55.9114 102.083 56.9914 101.254 56.9914 101.254C56.9914 101.254 61.4277 102.581 64.1382 100.976C66.8487 99.3709 65.872 97.8925 65.7625 97.733" fill="#DD2025"/>
<path d="M44.3203 66.4639L49.9395 76.8043L59.8573 71.4147L44.3203 66.4639Z" fill="#909090"/>
<path d="M44.3838 66.2534L50.003 76.5938L59.9208 71.2043L44.3838 66.2534Z" fill="#F4F4F4"/>
<path d="M20.2268 84.9851L17.9256 86.2356L22.5182 94.6868L24.3352 93.6994L22.7871 90.8506L23.201 90.6554C23.5865 90.4389 23.9336 90.1601 24.2282 89.8304C24.4904 89.5464 24.6911 89.2114 24.8178 88.8463C24.9556 88.4911 25.0071 88.1083 24.9679 87.7293C24.8675 87.1196 24.634 86.5395 24.284 86.0302C24.0643 85.6498 23.789 85.3044 23.4671 85.0054C23.2126 84.8012 22.9182 84.6524 22.6028 84.5685C22.2874 84.4846 21.958 84.4675 21.6357 84.5182C21.3543 84.5583 21.0781 84.6281 20.8116 84.7266C20.6094 84.7973 20.4133 84.884 20.225 84.986M22.0871 89.2058L21.9304 89.291L20.5144 86.6852L20.856 86.4996C21.0001 86.4073 21.1631 86.3485 21.3329 86.3277C21.5028 86.3068 21.6751 86.3244 21.8373 86.3791C22.2032 86.5475 22.5039 86.8311 22.6934 87.1865C22.9287 87.6196 23.1421 88.0122 22.9014 88.5011C22.7042 88.8091 22.4215 89.0531 22.0879 89.2031M26.3432 81.6316C26.1478 81.7378 25.9653 81.8553 25.8344 81.9333L25.4263 82.1687L24.053 82.915L28.6456 91.3662L30.2619 90.4878C30.8881 90.1681 31.446 89.7293 31.9044 89.1961C32.2696 88.7598 32.5197 88.2389 32.6319 87.681C32.7367 87.125 32.7162 86.5526 32.572 86.0054C32.4142 85.384 32.1764 84.7857 31.8647 84.2255C31.5377 83.5415 31.1238 82.9025 30.6332 82.3244C30.2423 81.9158 29.7609 81.6048 29.2276 81.4166C28.8045 81.26 28.3531 81.1944 27.903 81.2242C27.5169 81.2488 27.1351 81.32 26.7661 81.4361C26.6216 81.4864 26.4818 81.5494 26.3484 81.6243M29.7948 88.7302L29.6187 88.8258L26.6871 83.4312L26.71 83.4187C27.0502 83.1795 27.4531 83.0454 27.8688 83.033C28.2113 83.094 28.5365 83.2285 28.822 83.4273C29.1261 83.6346 29.3828 83.9039 29.5752 84.2176C29.8016 84.5963 29.958 84.9218 30.1005 85.1842C30.2712 85.4828 30.416 85.7956 30.5332 86.119C30.6444 86.4555 30.7053 86.8067 30.7141 87.161C30.6943 87.5066 30.5933 87.8428 30.4194 88.1421C30.2789 88.401 30.0572 88.6064 29.7884 88.7268M34.9815 76.9762L30.7031 79.3012L35.2956 87.7524L37.1056 86.7688L35.2839 83.4165L37.5727 82.1727L36.7193 80.6022L34.4304 81.846L33.3665 79.8881L35.8314 78.5486L34.978 76.9781" fill="white"/>
</g>
<g clip-path="url(#clip1_17_62)">
<path d="M324.06 155.654L324.958 168.113L303.067 194.488L278.211 173.859L278.14 173.945L303.08 194.645L324.97 168.27L324.06 155.654Z" fill="#909090"/>
<path d="M324.049 155.5L305.845 140.391L278.126 173.789L303.067 194.488L324.956 168.114L324.049 155.5Z" fill="#F4F4F4"/>
<path d="M304.175 142.033L296.533 135.691L289.757 143.855L313.794 163.804L320.57 155.64L304.175 142.033Z" fill="#7A7B7C"/>
<path d="M314.034 163.771L290.025 143.844L296.806 135.674L320.815 155.601L314.034 163.771Z" fill="#DD2025"/>
<path d="M303.622 143.662L302.059 142.365L297.295 148.105L298.525 149.125L300.131 147.189L300.39 147.43C300.657 147.646 300.958 147.815 301.28 147.932C301.56 148.04 301.859 148.088 302.158 148.074C302.455 148.072 302.746 148 303.009 147.863C303.42 147.616 303.77 147.28 304.036 146.882C304.247 146.614 304.416 146.316 304.539 145.998C304.613 145.756 304.635 145.502 304.605 145.25C304.574 144.999 304.492 144.757 304.363 144.539C304.253 144.349 304.124 144.172 303.977 144.009C303.868 143.884 303.749 143.768 303.621 143.661M301.118 146.217L301.012 146.129L302.481 144.359L302.711 144.55C302.819 144.628 302.909 144.728 302.973 144.844C303.036 144.961 303.073 145.09 303.081 145.222C303.065 145.534 302.947 145.833 302.746 146.071C302.502 146.365 302.28 146.632 301.859 146.6C301.58 146.546 301.322 146.414 301.118 146.217ZM307.798 147.102C307.665 146.992 307.528 146.894 307.434 146.822L307.144 146.593L306.211 145.819L301.447 151.559L302.545 152.47C302.955 152.829 303.432 153.104 303.948 153.281C304.367 153.418 304.814 153.449 305.248 153.369C305.679 153.284 306.085 153.105 306.438 152.843C306.84 152.551 307.202 152.207 307.516 151.822C307.914 151.389 308.255 150.907 308.53 150.388C308.712 149.988 308.797 149.552 308.779 149.114C308.77 148.764 308.688 148.42 308.537 148.105C308.408 147.834 308.247 147.579 308.057 147.347C307.979 147.257 307.893 147.175 307.801 147.1M303.676 151.628L303.556 151.528L306.597 147.864L306.613 147.877C306.883 148.053 307.096 148.305 307.224 148.601C307.279 148.865 307.276 149.138 307.215 149.401C307.153 149.679 307.033 149.942 306.862 150.171C306.655 150.443 306.465 150.649 306.318 150.827C306.152 151.036 305.968 151.23 305.769 151.408C305.559 151.585 305.323 151.73 305.071 151.838C304.816 151.923 304.545 151.947 304.279 151.908C304.052 151.882 303.841 151.781 303.676 151.622M313.637 151.982L310.731 149.571L305.967 155.311L307.196 156.331L309.086 154.054L310.641 155.344L311.526 154.278L309.971 152.987L311.075 151.657L312.749 153.047L313.635 151.98" fill="#464648"/>
<path d="M303.239 175.096C303.239 175.096 307.625 177.569 306.544 178.871C305.464 180.173 303.542 177.683 303.239 175.096ZM300.338 172.856C299.622 172.486 298.869 172.192 298.091 171.979L299.463 171.299C300.835 170.62 302.549 169.565 302.549 169.565C302.32 170.999 302.235 172.452 302.296 173.903C301.663 173.519 301.008 173.17 300.336 172.858L300.338 172.856ZM305.28 163.83C306.222 162.695 306.846 162.69 307.132 162.927C307.418 163.165 307.626 163.569 306.819 164.564C305.903 165.477 304.885 166.281 303.785 166.961C304.005 165.808 304.519 164.73 305.276 163.833L305.28 163.83ZM289.284 171.792C288.695 170.121 294.105 170.974 294.819 171.449C294.814 171.448 289.901 173.54 289.284 171.792ZM307.53 179.949C307.617 179.82 308.608 178.407 306.206 176.508C305.238 175.675 304.199 174.93 303.101 174.28C302.946 172.553 303.023 170.814 303.33 169.108C304.736 168.254 306.022 167.216 307.151 166.019C308.308 164.555 308.647 163.448 307.537 162.547C306.427 161.645 305.468 162.475 304.424 164.028C303.766 165.108 303.253 166.27 302.898 167.484C302.898 167.484 301.077 168.644 299.099 169.66C297.121 170.676 295.977 171.12 295.977 171.12C294.492 170.53 292.923 170.182 291.328 170.09C289.582 170.189 288.597 170.561 288.531 171.696C288.474 172.675 289.925 174.111 292.846 173.439C294.375 173.107 295.88 172.676 297.352 172.147C297.352 172.147 299.971 173.332 300.768 173.723C301.564 174.114 302.472 174.653 302.472 174.653C302.472 174.653 302.793 178.23 304.73 179.719C306.666 181.209 307.449 180.08 307.533 179.956" fill="#DD2025"/>
<path d="M323.88 155.514L318.051 162.537L324.787 168.128L323.88 155.514Z" fill="#909090"/>
<path d="M324.049 155.5L318.22 162.523L324.956 168.114L324.049 155.5Z" fill="#F4F4F4"/>
<path d="M303.607 143.494L302.044 142.197L297.28 147.937L298.514 148.961L300.12 147.026L300.379 147.268C300.646 147.484 300.947 147.653 301.269 147.77C301.549 147.878 301.848 147.926 302.148 147.912C302.443 147.909 302.733 147.836 302.995 147.698C303.405 147.45 303.756 147.115 304.022 146.717C304.233 146.449 304.402 146.151 304.525 145.833C304.598 145.591 304.621 145.337 304.591 145.085C304.56 144.834 304.478 144.592 304.348 144.374C304.238 144.183 304.109 144.004 303.961 143.841C303.852 143.716 303.733 143.599 303.605 143.493M301.103 146.049L300.996 145.96L302.465 144.191L302.697 144.383C302.805 144.46 302.894 144.561 302.958 144.677C303.022 144.793 303.059 144.923 303.066 145.055C303.05 145.367 302.933 145.665 302.731 145.904C302.487 146.198 302.266 146.465 301.845 146.432C301.566 146.379 301.309 146.246 301.105 146.049M307.782 146.933C307.649 146.823 307.512 146.726 307.419 146.654L307.132 146.428L306.199 145.654L301.435 151.394L302.533 152.305C302.943 152.664 303.42 152.939 303.936 153.116C304.355 153.253 304.802 153.283 305.236 153.204C305.667 153.119 306.073 152.939 306.426 152.678C306.828 152.386 307.19 152.042 307.504 151.656C307.902 151.224 308.243 150.742 308.518 150.222C308.7 149.823 308.785 149.387 308.767 148.949C308.758 148.599 308.676 148.255 308.525 147.939C308.396 147.668 308.235 147.414 308.045 147.182C307.967 147.092 307.881 147.01 307.789 146.935M303.664 151.462L303.544 151.363L306.585 147.699L306.601 147.712C306.871 147.888 307.084 148.14 307.212 148.435C307.267 148.7 307.264 148.973 307.203 149.235C307.141 149.514 307.021 149.776 306.85 150.005C306.643 150.277 306.453 150.484 306.305 150.662C306.14 150.871 305.956 151.065 305.757 151.243C305.546 151.42 305.311 151.564 305.059 151.673C304.804 151.758 304.533 151.782 304.267 151.743C304.04 151.716 303.829 151.616 303.664 151.457M313.621 151.814L310.715 149.402L305.951 155.142L307.181 156.163L309.071 153.886L310.625 155.176L311.51 154.109L309.956 152.819L311.06 151.489L312.734 152.879L313.619 151.812" fill="white"/>
</g>
<g clip-path="url(#clip2_17_62)">
<path d="M52.4516 165.178L58.4673 168.446L64.1717 186.346L47.3031 191.722L47.3217 191.781L64.2479 186.386L58.5438 168.487L52.4516 165.178Z" fill="#909090"/>
<path d="M52.3771 165.137L40.0225 169.075L47.2456 191.74L64.1718 186.346L58.4676 168.447L52.3771 165.137Z" fill="#F4F4F4"/>
<path d="M40.2856 170.332L35.0996 171.984L36.8653 177.525L53.178 172.326L51.4123 166.786L40.2856 170.332Z" fill="#7A7B7C"/>
<path d="M53.2348 172.205L36.9408 177.397L35.1738 171.853L51.4678 166.66L53.2348 172.205Z" fill="#DD2025"/>
<path d="M40.8752 171.068L39.8145 171.406L41.0559 175.302L41.8902 175.036L41.4715 173.722L41.6591 173.674C41.8373 173.614 42.0045 173.526 42.1539 173.412C42.2861 173.314 42.3967 173.19 42.4787 173.048C42.5657 172.911 42.6186 172.755 42.6332 172.593C42.64 172.33 42.5889 172.069 42.4836 171.829C42.4223 171.652 42.3349 171.486 42.2245 171.336C42.1345 171.23 42.0235 171.144 41.8986 171.084C41.7736 171.024 41.6375 170.99 41.4988 170.986C41.3788 170.98 41.2585 170.987 41.14 171.007C41.05 171.02 40.9611 171.041 40.8744 171.069M41.3143 172.979L41.2421 173.002L40.8593 171.801L41.0159 171.751C41.0835 171.724 41.1562 171.713 41.2288 171.718C41.3014 171.722 41.3719 171.744 41.4352 171.779C41.5745 171.879 41.6774 172.021 41.7281 172.185C41.7917 172.385 41.8494 172.565 41.7098 172.75C41.6028 172.863 41.4656 172.943 41.3143 172.979ZM43.6969 170.157C43.6068 170.186 43.5212 170.221 43.4603 170.243L43.2687 170.309L42.6357 170.511L43.8772 174.406L44.6222 174.169C44.9092 174.086 45.1772 173.947 45.4112 173.761C45.5986 173.608 45.7447 173.411 45.8361 173.187C45.9243 172.963 45.9616 172.722 45.9451 172.482C45.9289 172.21 45.8775 171.942 45.7922 171.683C45.7103 171.371 45.5886 171.071 45.4301 170.791C45.2996 170.589 45.1234 170.42 44.9159 170.299C44.7518 170.2 44.5686 170.136 44.3782 170.113C44.2151 170.092 44.05 170.091 43.8866 170.11C43.8223 170.12 43.7589 170.135 43.6972 170.156M44.5677 173.398L44.4866 173.424L43.6941 170.937L43.7047 170.934C43.8658 170.861 44.0448 170.837 44.2193 170.865C44.3574 170.918 44.4824 171 44.5857 171.106C44.6961 171.217 44.7817 171.35 44.837 171.496C44.9012 171.672 44.9404 171.821 44.979 171.942C45.0264 172.08 45.0618 172.222 45.0849 172.367C45.1044 172.516 45.1017 172.668 45.077 172.816C45.0411 172.959 44.9721 173.091 44.8755 173.202C44.7962 173.299 44.6872 173.367 44.5653 173.396M47.6756 168.905L45.7035 169.533L46.9449 173.429L47.7792 173.163L47.2868 171.618L48.3418 171.281L48.1111 170.557L47.0561 170.894L46.7685 169.991L47.9047 169.629L47.674 168.905" fill="#464648"/>
<path d="M55.2728 180.535C55.2728 180.535 57.7106 179.241 57.9922 180.125C58.2739 181.009 56.5565 181.16 55.2728 180.535ZM53.3814 181.212C52.9991 181.433 52.6409 181.694 52.3124 181.99L52.4043 181.156C52.4961 180.322 52.5156 179.219 52.5156 179.219C53.11 179.748 53.7559 180.217 54.4436 180.618C54.079 180.797 53.7246 180.995 53.3819 181.213L53.3814 181.212ZM50.6761 176.263C50.4306 175.493 50.6128 175.203 50.8067 175.141C51.0007 175.079 51.2488 175.103 51.4692 175.77C51.6202 176.462 51.6906 177.17 51.6791 177.879C51.2118 177.436 50.8663 176.881 50.676 176.266L50.6761 176.263ZM49.6228 186C48.6778 185.778 50.6703 183.533 51.1008 183.344C51.0986 183.345 50.6122 186.232 49.6228 186ZM58.7812 179.989C58.7472 179.91 58.3879 179.035 56.8012 179.583C56.1311 179.784 55.4799 180.043 54.8552 180.358C54.0125 179.919 53.2324 179.369 52.5356 178.723C52.5574 177.822 52.4578 176.921 52.2395 176.046C51.9056 175.08 51.4947 174.596 50.7506 174.842C50.0066 175.088 50.106 175.776 50.5141 176.717C50.8184 177.34 51.2031 177.92 51.6584 178.442C51.6584 178.442 51.6557 179.626 51.54 180.839C51.4242 182.053 51.291 182.712 51.291 182.712C50.58 183.223 49.9555 183.844 49.4416 184.553C48.9712 185.389 48.8517 185.953 49.3562 186.319C49.7911 186.635 50.8832 186.389 51.4363 184.843C51.735 184.039 51.9805 183.216 52.1714 182.38C52.1714 182.38 53.4928 181.522 53.9086 181.27C54.3244 181.018 54.8415 180.758 54.8415 180.758C54.8415 180.758 56.5875 181.667 57.8474 181.214C59.1074 180.76 58.8179 180.065 58.785 179.989" fill="#DD2025"/>
<path d="M52.332 165.22L53.851 169.987L58.4226 168.53L52.332 165.22Z" fill="#909090"/>
<path d="M52.377 165.138L53.8959 169.904L58.4675 168.447L52.377 165.138Z" fill="#F4F4F4"/>
<path d="M40.7932 171.026L39.7324 171.364L40.9739 175.259L41.8114 174.992L41.3929 173.679L41.5813 173.631C41.7596 173.571 41.9268 173.483 42.0762 173.369C42.2083 173.271 42.3189 173.147 42.401 173.005C42.487 172.868 42.5391 172.712 42.553 172.551C42.5599 172.288 42.5088 172.027 42.4034 171.786C42.3421 171.61 42.2548 171.444 42.1443 171.293C42.0544 171.188 41.9434 171.102 41.8184 171.042C41.6935 170.982 41.5573 170.948 41.4187 170.943C41.298 170.938 41.1771 170.945 41.058 170.965C40.9679 170.978 40.8791 170.998 40.7923 171.026M41.2323 172.937L41.16 172.96L40.7773 171.758L40.9347 171.708C41.0022 171.681 41.075 171.67 41.1476 171.675C41.2201 171.68 41.2907 171.701 41.354 171.736C41.4933 171.836 41.5962 171.978 41.6469 172.142C41.7105 172.342 41.7682 172.523 41.6286 172.707C41.5216 172.82 41.3841 172.9 41.2328 172.936M43.6149 170.115C43.5248 170.144 43.4392 170.178 43.3783 170.2L43.1891 170.266L42.5561 170.467L43.7976 174.363L44.5426 174.126C44.8296 174.042 45.0976 173.904 45.3316 173.718C45.519 173.565 45.6651 173.367 45.7565 173.143C45.8447 172.92 45.882 172.679 45.8655 172.439C45.8493 172.167 45.7979 171.898 45.7126 171.639C45.6307 171.328 45.509 171.028 45.3505 170.747C45.22 170.545 45.0438 170.377 44.8363 170.256C44.6722 170.157 44.489 170.093 44.2986 170.069C44.1355 170.049 43.9704 170.048 43.807 170.067C43.7427 170.076 43.6793 170.092 43.6176 170.112M44.4881 173.354L44.407 173.38L43.6145 170.894L43.6251 170.89C43.7862 170.818 43.9652 170.794 44.1397 170.822C44.2778 170.875 44.4028 170.957 44.5061 171.063C44.6165 171.174 44.7021 171.307 44.7574 171.453C44.8216 171.629 44.8608 171.778 44.8994 171.898C44.9468 172.037 44.9822 172.179 45.0053 172.323C45.0248 172.473 45.0221 172.624 44.9974 172.773C44.9615 172.916 44.8925 173.048 44.7959 173.159C44.7166 173.256 44.6076 173.324 44.4857 173.352M47.5936 168.862L45.6214 169.491L46.8629 173.386L47.6972 173.12L47.2047 171.575L48.2598 171.239L48.0291 170.515L46.974 170.851L46.6864 169.949L47.8226 169.587L47.5919 168.863" fill="white"/>
</g>
<path d="M26.5029 203.049H335.783V206.968C335.783 206.968 321.698 214.806 305.714 214.806C289.731 214.806 72.5553 214.414 56.5719 214.414C40.5884 214.414 26.5029 206.968 26.5029 206.968V203.049Z" fill="url(#paint0_linear_17_62)"/>
<path d="M26.5029 203.231C26.5029 203.096 26.6116 202.988 26.7457 202.988H335.541C335.675 202.988 335.783 203.096 335.783 203.231V204.806H26.5029V203.231Z" fill="url(#paint1_linear_17_62)"/>
<path d="M158.166 202.988H204.318V202.988C204.318 203.992 203.504 204.806 202.5 204.806H159.984C158.98 204.806 158.166 203.992 158.166 202.988V202.988Z" fill="url(#paint2_linear_17_62)"/>
<g clip-path="url(#clip3_17_62)">
<path d="M312.806 12.137L322.905 25.9488L316.666 72.4862L272.811 66.6066L272.79 66.7585L316.796 72.6583L323.035 26.1229L312.806 12.137Z" fill="#909090"/>
<path d="M312.682 11.9657L280.562 7.65942L272.661 66.5867L316.667 72.4864L322.906 25.951L312.682 11.9657Z" fill="#F4F4F4"/>
<path d="M279.816 10.781L266.333 8.97339L264.402 23.3782L306.812 29.064L308.743 14.6592L279.816 10.781Z" fill="#7A7B7C"/>
<path d="M307.066 28.8491L264.704 23.1697L266.637 8.75439L308.999 14.4337L307.066 28.8491Z" fill="#DD2025"/>
<path d="M280.356 13.0745L277.598 12.7048L276.24 22.8326L278.409 23.1234L278.867 19.7074L279.343 19.799C279.809 19.855 280.282 19.8334 280.741 19.7352C281.144 19.656 281.526 19.4944 281.864 19.2606C282.207 19.0434 282.493 18.7475 282.699 18.3975C282.995 17.8115 283.158 17.1675 283.177 16.5113C283.227 16.0473 283.207 15.5784 283.119 15.1202C283.028 14.7855 282.869 14.4734 282.651 14.2037C282.433 13.9341 282.161 13.713 281.853 13.5544C281.588 13.4136 281.309 13.3013 281.02 13.2193C280.802 13.1532 280.579 13.1047 280.354 13.0742M279.306 17.861L279.118 17.8358L279.537 14.7131L279.944 14.7677C280.126 14.7788 280.302 14.8306 280.461 14.9191C280.62 15.0077 280.757 15.1308 280.862 15.2794C281.07 15.6532 281.15 16.0849 281.09 16.5085C281.02 17.0276 280.957 17.4981 280.444 17.7666C280.082 17.9072 279.686 17.9414 279.306 17.861ZM287.704 14.0317C287.47 14.0003 287.24 13.9867 287.079 13.9715L286.575 13.9168L284.929 13.6962L283.571 23.8241L285.508 24.0837C286.246 24.202 287 24.1754 287.727 24.0053C288.314 23.8599 288.855 23.5699 289.301 23.1617C289.739 22.7504 290.08 22.2465 290.3 21.6868C290.554 21.0549 290.725 20.3926 290.809 19.7167C290.957 18.925 291.002 18.1175 290.944 17.3141C290.865 16.7186 290.647 16.1501 290.307 15.6544C290.042 15.2548 289.696 14.9157 289.291 14.6591C288.945 14.4382 288.573 14.2599 288.183 14.1282C288.028 14.0808 287.869 14.0472 287.707 14.0278M286.209 22.2833L285.998 22.255L286.865 15.79L286.893 15.7937C287.334 15.8017 287.764 15.9393 288.128 16.1892C288.384 16.4562 288.579 16.7754 288.699 17.1249C288.83 17.4932 288.881 17.8852 288.85 18.2749C288.806 18.7416 288.736 19.1189 288.694 19.4332C288.654 19.7964 288.582 20.1554 288.48 20.5063C288.364 20.8647 288.196 21.2041 287.982 21.5135C287.748 21.7976 287.451 22.0226 287.114 22.1704C286.831 22.3043 286.512 22.3416 286.206 22.2764M298.032 15.4529L292.905 14.7655L291.547 24.8933L293.716 25.1841L294.255 21.1667L296.998 21.5345L297.25 19.6524L294.507 19.2847L294.822 16.9384L297.776 17.3344L298.028 15.4523" fill="#464648"/>
<path d="M302.77 49.8463C302.77 49.8463 309.66 49.5286 309.352 51.8264C309.044 54.1241 305.002 52.6307 302.77 49.8463ZM297.773 49.3547C296.673 49.4469 295.585 49.6531 294.527 49.9698L295.625 48.184C296.724 46.3982 297.947 43.9266 297.947 43.9266C298.724 45.758 299.682 47.5069 300.808 49.1473C299.793 49.1621 298.78 49.2328 297.772 49.3589L297.773 49.3547ZM296.949 35.2829C297.217 33.2806 297.938 32.8209 298.443 32.8885C298.947 32.9561 299.482 33.2749 299.268 35.016C298.869 36.7422 298.272 38.4164 297.489 40.0055C296.906 38.506 296.719 36.8816 296.946 35.289L296.949 35.2829ZM284.165 56.1563C282.267 54.6453 289.167 51.7021 290.342 51.735C290.336 51.7362 286.152 57.7372 284.165 56.1563ZM311.28 52.3619C311.287 52.1481 311.41 49.7869 307.24 49.3288C305.512 49.0661 303.763 48.9561 302.015 48.9999C300.581 47.108 299.405 45.0325 298.521 42.8288C299.534 40.8151 300.271 38.6744 300.713 36.4641C300.991 33.9239 300.58 32.3911 298.636 32.1519C296.692 31.9128 296.182 33.5734 296.098 36.1354C296.12 37.8676 296.369 39.5893 296.84 41.2566C296.84 41.2566 295.569 43.9279 294.011 46.5456C292.453 49.1634 291.447 50.5106 291.447 50.5106C289.295 50.9046 287.22 51.6417 285.301 52.6937C283.346 54.079 282.472 55.227 283.222 56.5925C283.867 57.7702 286.596 58.3831 289.499 55.4795C291.032 53.9828 292.466 52.3869 293.791 50.7024C293.791 50.7024 297.693 50.1752 298.902 50.0495C300.111 49.9238 301.557 49.8899 301.557 49.8899C301.557 49.8899 304.53 53.809 307.861 54.131C311.193 54.453 311.281 52.5726 311.288 52.3672" fill="#DD2025"/>
<path d="M312.494 12.1057L310.833 24.4976L322.718 26.091L312.494 12.1057Z" fill="#909090"/>
<path d="M312.682 11.9656L311.02 24.3574L322.906 25.9509L312.682 11.9656Z" fill="#F4F4F4"/>
<path d="M280.218 12.8909L277.461 12.5212L276.103 22.649L278.28 22.9409L278.738 19.527L279.215 19.6189C279.682 19.6749 280.154 19.6534 280.614 19.5551C281.016 19.4759 281.399 19.3144 281.736 19.0806C282.077 18.8623 282.361 18.5662 282.565 18.2165C282.861 17.6306 283.024 16.9866 283.043 16.3304C283.093 15.8664 283.074 15.3975 282.985 14.9393C282.895 14.6046 282.735 14.2925 282.518 14.0228C282.3 13.7532 282.028 13.532 281.719 13.3735C281.453 13.2315 281.172 13.1183 280.882 13.0357C280.664 12.9696 280.442 12.9211 280.216 12.8906M279.168 17.6774L278.981 17.6522L279.399 14.5295L279.809 14.5844C279.99 14.5955 280.167 14.6473 280.326 14.7358C280.484 14.8244 280.621 14.9475 280.726 15.0961C280.934 15.4699 281.014 15.9016 280.954 16.3252C280.885 16.8443 280.822 17.3148 280.309 17.5833C279.946 17.7239 279.551 17.7559 279.171 17.6756M287.567 13.8482C287.333 13.8168 287.102 13.8031 286.941 13.7879L286.444 13.7341L284.798 13.5135L283.44 23.6413L285.377 23.901C286.115 24.0193 286.868 23.9926 287.596 23.8225C288.182 23.6772 288.723 23.3871 289.169 22.9789C289.608 22.5676 289.949 22.0638 290.168 21.5041C290.422 20.8721 290.593 20.2099 290.677 19.5339C290.825 18.7422 290.871 17.9347 290.812 17.1314C290.733 16.5359 290.515 15.9673 290.176 15.4716C289.911 15.0721 289.565 14.7329 289.16 14.4763C288.813 14.2554 288.441 14.0772 288.052 13.9454C287.897 13.8981 287.737 13.8645 287.576 13.8451M286.078 22.1005L285.867 22.0722L286.734 15.6073L286.761 15.611C287.203 15.619 287.633 15.7565 287.997 16.0065C288.253 16.2734 288.447 16.5926 288.567 16.9421C288.698 17.3105 288.75 17.7024 288.718 18.0921C288.675 18.5589 288.605 18.9361 288.563 19.2505C288.522 19.6137 288.45 19.9727 288.348 20.3236C288.233 20.6819 288.065 21.0213 287.85 21.3308C287.617 21.6148 287.319 21.8399 286.982 21.9877C286.7 22.1216 286.381 22.1588 286.075 22.0936M297.894 15.2693L292.767 14.5819L291.409 24.7097L293.578 25.0005L294.117 20.9832L296.86 21.3509L297.112 19.4688L294.369 19.1011L294.684 16.7548L297.638 17.1508L297.89 15.2687" fill="white"/>
</g>
<g clip-path="url(#clip4_17_62)">
<path d="M145.645 11.4592L156.195 18.1458L164.384 51.4294L133.019 59.147L133.046 59.2557L164.518 51.5117L156.329 18.2296L145.645 11.4592Z" fill="#909090"/>
<path d="M145.515 11.3757L122.543 17.0281L132.913 59.1729L164.386 51.429L156.196 18.1468L145.515 11.3757Z" fill="#F4F4F4"/>
<path d="M122.869 19.3483L113.227 21.7209L115.761 32.0232L146.093 24.56L143.559 14.2577L122.869 19.3483Z" fill="#7A7B7C"/>
<path d="M146.208 24.3456L115.911 31.8003L113.374 21.4905L143.671 14.0358L146.208 24.3456Z" fill="#DD2025"/>
<path d="M123.851 20.7619L121.879 21.2472L123.661 28.4906L125.212 28.1089L124.611 25.6658L124.958 25.6011C125.29 25.5146 125.606 25.3738 125.891 25.1843C126.144 25.0229 126.36 24.8111 126.527 24.5621C126.702 24.3229 126.818 24.0454 126.864 23.7526C126.909 23.2755 126.848 22.7943 126.686 22.3434C126.596 22.0148 126.457 21.7015 126.274 21.4139C126.124 21.2107 125.932 21.0411 125.712 20.9161C125.492 20.7912 125.248 20.7135 124.996 20.6881C124.779 20.6633 124.559 20.6616 124.341 20.683C124.175 20.6963 124.011 20.7228 123.849 20.7623M124.416 24.2942L124.282 24.3272L123.732 22.0939L124.023 22.0222C124.15 21.9813 124.284 21.9693 124.415 21.9871C124.547 22.0048 124.672 22.0519 124.783 22.1249C125.025 22.3232 125.194 22.5951 125.267 22.899C125.358 23.2702 125.441 23.6067 125.164 23.9261C124.956 24.1184 124.696 24.2473 124.416 24.2942ZM129.099 19.4498C128.932 19.491 128.772 19.5431 128.658 19.5759L128.301 19.6733L127.124 19.9629L128.906 27.2064L130.292 26.8655C130.824 26.7489 131.329 26.5295 131.778 26.2197C132.138 25.9643 132.428 25.6227 132.622 25.2263C132.81 24.8298 132.907 24.3964 132.907 23.9575C132.911 23.4603 132.85 22.9647 132.726 22.4831C132.616 21.9057 132.431 21.3449 132.177 20.8147C131.964 20.4313 131.664 20.1032 131.301 19.8571C131.014 19.6564 130.688 19.5184 130.345 19.4521C130.05 19.3946 129.75 19.3729 129.45 19.3874C129.332 19.3967 129.215 19.4165 129.1 19.4464M130.287 25.4551L130.136 25.4922L128.999 20.8685L129.018 20.8637C129.32 20.7511 129.649 20.7298 129.963 20.8023C130.208 20.9154 130.426 21.0803 130.601 21.2857C130.788 21.501 130.928 21.7535 131.01 22.0267C131.106 22.3553 131.159 22.6303 131.214 22.8552C131.284 23.1128 131.331 23.3759 131.355 23.6416C131.372 23.9159 131.349 24.1913 131.286 24.4588C131.203 24.7142 131.061 24.9465 130.871 25.1369C130.715 25.3034 130.508 25.4139 130.283 25.4513M136.495 17.6571L132.828 18.5594L134.611 25.8029L136.162 25.4212L135.455 22.5479L137.417 22.0652L137.085 20.7192L135.124 21.2018L134.711 19.5238L136.824 19.004L136.492 17.6579" fill="#464648"/>
<path d="M148.895 39.7592C148.895 39.7592 153.491 37.7033 153.896 39.3466C154.3 40.99 151.155 41.0548 148.895 39.7592ZM145.369 40.7596C144.646 41.1162 143.962 41.5468 143.328 42.0445L143.597 40.5378C143.867 39.0312 144.037 37.0255 144.037 37.0255C145.054 38.0621 146.173 38.9944 147.376 39.8082C146.69 40.0894 146.02 40.408 145.37 40.7627L145.369 40.7596ZM141.051 31.4194C140.699 29.9873 141.066 29.4825 141.427 29.3937C141.787 29.305 142.236 29.3786 142.555 30.6188C142.745 31.898 142.787 33.195 142.679 34.4838C141.882 33.6207 141.322 32.567 141.051 31.4243L141.051 31.4194ZM137.94 49.0148C136.247 48.4951 140.149 44.6526 140.956 44.3613C140.952 44.3639 139.713 49.5581 137.94 49.0148ZM155.348 39.1956C155.296 39.0484 154.749 37.4113 151.794 38.2137C150.55 38.4969 149.332 38.889 148.157 39.3856C146.676 38.4834 145.324 37.3872 144.135 36.1261C144.285 34.4876 144.214 32.8363 143.924 31.2167C143.434 29.4166 142.746 28.485 141.361 28.8417C139.977 29.1984 140.073 30.4629 140.701 32.2258C141.178 33.3967 141.807 34.4999 142.572 35.5071C142.572 35.5071 142.422 37.6614 142.063 39.8559C141.703 42.0505 141.38 43.2344 141.38 43.2344C140.023 44.0768 138.81 45.1318 137.788 46.3588C136.829 47.8222 136.542 48.8354 137.416 49.5631C138.169 50.1909 140.187 49.8784 141.383 47.1306C142.025 45.7041 142.573 44.237 143.023 42.7388C143.023 42.7388 145.534 41.3385 146.322 40.9302C147.109 40.5219 148.083 40.1128 148.083 40.1128C148.083 40.1128 151.149 41.9813 153.499 41.3104C155.848 40.6396 155.406 39.3383 155.355 39.1972" fill="#DD2025"/>
<path d="M145.425 11.5208L147.605 20.3834L156.106 18.2919L145.425 11.5208Z" fill="#909090"/>
<path d="M145.515 11.3757L147.695 20.2384L156.196 18.1468L145.515 11.3757Z" fill="#F4F4F4"/>
<path d="M123.705 20.6742L121.733 21.1595L123.515 28.403L125.073 28.0198L124.472 25.5782L124.821 25.5131C125.153 25.4266 125.468 25.2858 125.754 25.0963C126.006 24.9349 126.223 24.7231 126.39 24.4741C126.563 24.2348 126.677 23.9577 126.722 23.6658C126.767 23.1886 126.706 22.7075 126.543 22.2565C126.453 21.928 126.315 21.6147 126.132 21.327C125.982 21.1238 125.79 20.9542 125.57 20.8293C125.35 20.7043 125.106 20.6266 124.854 20.6012C124.635 20.5759 124.414 20.574 124.195 20.5954C124.029 20.6086 123.865 20.6351 123.704 20.6746M124.271 24.2066L124.136 24.2396L123.587 22.0062L123.879 21.9342C124.006 21.8933 124.14 21.8813 124.271 21.899C124.403 21.9168 124.528 21.9639 124.639 22.0369C124.881 22.2352 125.05 22.5071 125.123 22.811C125.214 23.1822 125.297 23.5187 125.02 23.8381C124.812 24.0304 124.551 24.1577 124.272 24.2047M128.954 19.3621C128.786 19.4033 128.626 19.4555 128.513 19.4882L128.16 19.5846L126.983 19.8742L128.765 27.1176L130.151 26.7768C130.683 26.6601 131.188 26.4408 131.637 26.131C131.997 25.8755 132.287 25.534 132.481 25.1376C132.669 24.741 132.766 24.3076 132.766 23.8688C132.77 23.3716 132.709 22.876 132.585 22.3944C132.475 21.8169 132.29 21.2561 132.036 20.726C131.823 20.3425 131.523 20.0145 131.16 19.7683C130.873 19.5676 130.547 19.4296 130.204 19.3634C129.909 19.3059 129.609 19.2841 129.309 19.2986C129.191 19.3079 129.074 19.3277 128.959 19.3576M130.146 25.3663L129.995 25.4035L128.858 20.7797L128.877 20.7749C129.179 20.6624 129.508 20.6411 129.822 20.7136C130.067 20.8267 130.285 20.9916 130.46 21.1969C130.647 21.4122 130.787 21.6648 130.869 21.9379C130.965 22.2666 131.018 22.5416 131.073 22.7664C131.143 23.024 131.19 23.2871 131.214 23.5528C131.231 23.8272 131.208 24.1025 131.145 24.3701C131.062 24.6255 130.92 24.8578 130.73 25.0481C130.574 25.2146 130.367 25.3251 130.142 25.3625M136.35 17.5695L132.683 18.4718L134.465 25.7152L136.016 25.3335L135.309 22.4603L137.271 21.9776L136.94 20.6315L134.978 21.1142L134.565 19.4361L136.678 18.9163L136.347 17.5702" fill="white"/>
</g>
<defs>
<linearGradient id="paint0_linear_17_62" x1="181.143" y1="203.049" x2="181.143" y2="214.806" gradientUnits="userSpaceOnUse">
<stop stop-color="#80868A"/>
<stop offset="1" stop-color="#2A2C2F"/>
</linearGradient>
<linearGradient id="paint1_linear_17_62" x1="26.5029" y1="203.897" x2="335.783" y2="203.897" gradientUnits="userSpaceOnUse">
<stop stop-color="#2A2C2F"/>
<stop offset="0.208333" stop-color="#80868A"/>
<stop offset="0.770833" stop-color="#80868A"/>
<stop offset="1" stop-color="#2A2C2F"/>
</linearGradient>
<linearGradient id="paint2_linear_17_62" x1="158.166" y1="203.897" x2="204.318" y2="203.897" gradientUnits="userSpaceOnUse">
<stop stop-color="#2A2C2F"/>
<stop offset="0.229167" stop-color="#80868A"/>
<stop offset="0.802083" stop-color="#80868A"/>
<stop offset="1" stop-color="#2A2C2F"/>
</linearGradient>
<clipPath id="clip0_17_62">
<rect width="64.1229" height="64.1229" fill="white" transform="translate(0.160156 85.7249) rotate(-28.5206)"/>
</clipPath>
<clipPath id="clip1_17_62">
<rect width="49.73" height="49.73" fill="white" transform="translate(297.297 129.257) rotate(39.6912)"/>
</clipPath>
<clipPath id="clip2_17_62">
<rect width="27.2572" height="27.2572" fill="white" transform="translate(32.3574 169.729) rotate(-17.6761)"/>
</clipPath>
<clipPath id="clip3_17_62">
<rect width="68.1231" height="68.1231" fill="white" transform="translate(262.542 0.947754) rotate(7.63597)"/>
</clipPath>
<clipPath id="clip4_17_62">
<rect width="49.73" height="49.73" fill="white" transform="translate(108.507 17.2805) rotate(-13.8231)"/>
</clipPath>
</defs>
</svg>
