<svg width="74" height="55" viewBox="0 0 74 55" fill="none" xmlns="http://www.w3.org/2000/svg">
<g clip-path="url(#clip0_25_487)">
<path d="M19.7009 0H14.7314V49.8279H29.4631V9.90827L19.7009 0Z" fill="#E32775"/>
<path d="M34.4329 14.9482H29.0312V24.9138H34.4329V14.9482Z" fill="#E32775"/>
<path d="M53.9599 0H58.927V49.8279H44.1953V9.90827L53.9599 0Z" fill="#E32775"/>
<path d="M73.6604 0H58.9287V49.8279H73.6604V0Z" fill="#E32775"/>
<path d="M14.7317 0H0V49.8279H14.7317V0Z" fill="#E32775"/>
<path d="M19.7012 14.9484H34.4328L19.7012 0V14.9484Z" fill="url(#paint0_linear_25_487)"/>
<path d="M53.9592 14.9484H39.2275L53.9592 0V14.9484Z" fill="url(#paint1_linear_25_487)"/>
<path d="M44.6291 14.9482H39.2275V24.9138H44.6291V14.9482Z" fill="#E32775"/>
<path d="M14.7314 24.9138V39.8622H29.4631V54.9999H44.1947V39.8622H58.9264V24.9138H14.7314Z" fill="url(#paint2_linear_25_487)"/>
</g>
<defs>
<linearGradient id="paint0_linear_25_487" x1="19.7012" y1="14.9484" x2="27.1746" y2="7.58332" gradientUnits="userSpaceOnUse">
<stop offset="0.26" stop-color="white"/>
<stop offset="0.36" stop-color="#FDF5F7"/>
<stop offset="0.54" stop-color="#F9DBE4"/>
<stop offset="0.76" stop-color="#F4B1C5"/>
<stop offset="0.96" stop-color="#EE86A5"/>
</linearGradient>
<linearGradient id="paint1_linear_25_487" x1="53.9592" y1="14.9484" x2="46.4858" y2="7.58332" gradientUnits="userSpaceOnUse">
<stop offset="0.26" stop-color="white"/>
<stop offset="0.36" stop-color="#FDF5F7"/>
<stop offset="0.54" stop-color="#F9DBE4"/>
<stop offset="0.76" stop-color="#F4B1C5"/>
<stop offset="0.96" stop-color="#EE86A5"/>
</linearGradient>
<linearGradient id="paint2_linear_25_487" x1="36.8289" y1="24.9138" x2="36.8289" y2="54.9999" gradientUnits="userSpaceOnUse">
<stop offset="0.4" stop-color="white"/>
<stop offset="0.51" stop-color="#FAE0E9"/>
<stop offset="0.85" stop-color="#EE86AB"/>
<stop offset="1" stop-color="#EA6393"/>
</linearGradient>
<clipPath id="clip0_25_487">
<rect width="73.6607" height="55" fill="white"/>
</clipPath>
</defs>
</svg>
