<svg width="104" height="103" viewBox="0 0 104 103" fill="none" xmlns="http://www.w3.org/2000/svg">
<path d="M52 0C80.1824 0 103.027 22.8449 103.027 51.0273C103.027 79.2097 80.1824 102.055 52 102.055C23.8176 102.055 0.972656 79.2097 0.972656 51.0273C0.972656 22.8449 23.8176 0 52 0ZM52 20.4109C50.6467 20.4109 49.3488 20.9485 48.3918 21.9055C47.4349 22.8624 46.8973 24.1603 46.8973 25.5137V51.0273C46.8976 52.3806 47.4354 53.6783 48.3924 54.635L63.7006 69.9432C64.663 70.8727 65.9519 71.387 67.2898 71.3754C68.6278 71.3638 69.9076 70.8271 70.8537 69.881C71.7998 68.9349 72.3364 67.6551 72.348 66.3172C72.3597 64.9793 71.8453 63.6903 70.9158 62.7279L57.1027 48.9148V25.5137C57.1027 24.1603 56.5651 22.8624 55.6082 21.9055C54.6512 20.9485 53.3533 20.4109 52 20.4109Z" fill="url(#paint0_linear_13_155)"/>
<defs>
<linearGradient id="paint0_linear_13_155" x1="22.3786" y1="22.1237" x2="88.0388" y2="78.7039" gradientUnits="userSpaceOnUse">
<stop stop-color="#E22774"/>
<stop offset="1" stop-color="#EB7AA5"/>
</linearGradient>
</defs>
</svg>
