<svg width="99" height="100" viewBox="0 0 99 100" fill="none" xmlns="http://www.w3.org/2000/svg">
<path d="M34.874 17.6776C37.8479 8.97453 49.8731 8.71095 53.3991 16.8869L53.6975 17.6826L57.7109 29.4194C58.6307 32.111 60.117 34.5741 62.0696 36.6425C64.0222 38.711 66.3957 40.3366 69.0299 41.4097L70.1091 41.8126L81.8459 45.821C90.549 48.7949 90.8125 60.8201 82.6416 64.3461L81.8459 64.6445L70.1091 68.6579C67.4165 69.5771 64.9524 71.0631 62.8831 73.0157C60.8138 74.9684 59.1874 77.3422 58.1137 79.9769L57.7109 81.0511L53.7025 92.7929C50.7285 101.496 38.7033 101.76 35.1823 93.5886L34.874 92.7929L30.8656 81.0561C29.9464 78.3635 28.4604 75.8994 26.5078 73.8301C24.5551 71.7608 22.1813 70.1344 19.5466 69.0607L18.4723 68.6579L6.73559 64.6495C-1.97248 61.6755 -2.23606 49.6503 5.93988 46.1293L6.73559 45.821L18.4723 41.8126C21.164 40.8928 23.6271 39.4065 25.6955 37.4539C27.764 35.5013 29.3896 33.1278 30.4627 30.4936L30.8656 29.4194L34.874 17.6776ZM84.0738 0.53003C85.0042 0.530028 85.916 0.791014 86.7054 1.28333C87.4949 1.77564 88.1304 2.47954 88.5398 3.31502L88.7785 3.89689L90.5191 8.99939L95.6266 10.74C96.559 11.0568 97.3763 11.6432 97.9751 12.425C98.5738 13.2068 98.927 14.1487 98.9899 15.1315C99.0527 16.1142 98.8224 17.0934 98.3281 17.9451C97.8339 18.7968 97.0979 19.4826 96.2134 19.9156L95.6266 20.1543L90.5241 21.8949L88.7835 27.0024C88.4661 27.9345 87.8793 28.7514 87.0972 29.3497C86.3151 29.9479 85.373 30.3006 84.3903 30.3629C83.4077 30.4252 82.4286 30.1944 81.5772 29.6997C80.7258 29.2051 80.0404 28.4688 79.6079 27.5842L79.3692 27.0024L77.6286 21.8999L72.5211 20.1593C71.5887 19.8425 70.7714 19.256 70.1726 18.4743C69.5739 17.6925 69.2207 16.7505 69.1578 15.7678C69.095 14.7851 69.3253 13.8058 69.8196 12.9541C70.3138 12.1025 71.0498 11.4167 71.9343 10.9837L72.5211 10.745L77.6236 9.00437L79.3642 3.89689C79.6996 2.91431 80.334 2.06132 81.1786 1.45753C82.0232 0.85373 83.0356 0.529406 84.0738 0.53003Z" fill="url(#paint0_linear_13_159)"/>
<defs>
<linearGradient id="paint0_linear_13_159" x1="27.5738" y1="14.1718" x2="45.992" y2="100.275" gradientUnits="userSpaceOnUse">
<stop stop-color="#E22774"/>
<stop offset="1" stop-color="#EB7AA5"/>
</linearGradient>
</defs>
</svg>
