<svg width="93" height="101" viewBox="0 0 93 101" fill="none" xmlns="http://www.w3.org/2000/svg">
<path d="M71.801 6.48374L89.1949 24.6026L89.2193 93.5276L24.2662 93.5506L24.2663 93.7756L89.4413 93.7525L89.4169 24.8306L71.801 6.48374Z" fill="#909090"/>
<path d="M71.5846 6.25754L24.0127 6.27441L24.0436 93.5494L89.2186 93.5263L89.1942 24.6044L71.5846 6.25754Z" fill="#F4F4F4"/>
<path d="M66.7196 31.9191L14.0007 31.9191L14.001 10.5691L66.7121 10.5691L66.7196 31.9191Z" fill="#DD2025"/>
<path d="M24.7758 14.1936L20.6914 14.1951L20.6967 29.1951L23.9092 29.1939L23.9074 24.1346L24.6168 24.1749C25.3063 24.1652 25.9895 24.0414 26.6386 23.8086C27.2092 23.6146 27.7336 23.3048 28.1789 22.8987C28.6355 22.5155 28.9942 22.029 29.2253 21.4796C29.5413 20.5692 29.653 19.6004 29.5524 18.6419C29.5343 17.9571 29.414 17.2788 29.1954 16.6296C28.9985 16.1603 28.7057 15.7373 28.3359 15.3876C27.9661 15.038 27.5274 14.7694 27.0478 14.5991C26.6344 14.4461 26.2059 14.3373 25.7696 14.2745C25.44 14.221 25.1066 14.1939 24.7727 14.1936M24.1846 21.3626L23.9065 21.3627L23.9048 16.7377L24.5079 16.7375C24.7741 16.7182 25.0412 16.759 25.2896 16.8568C25.5379 16.9546 25.761 17.1069 25.9425 17.3026C26.3187 17.8056 26.5198 18.418 26.515 19.0461C26.5153 19.8149 26.5155 20.5118 25.822 21.0026C25.3224 21.278 24.7535 21.4052 24.1846 21.3626ZM35.6539 14.1491C35.307 14.1493 34.9695 14.1744 34.732 14.1838L33.9883 14.2029L31.5508 14.2037L31.5561 29.2037L34.4249 29.2027C35.5211 29.2305 36.6122 29.0444 37.6372 28.6547C38.4624 28.3285 39.1928 27.8007 39.7616 27.1196C40.319 26.4355 40.7169 25.6357 40.9264 24.7785C41.1726 23.8095 41.292 22.8126 41.2816 21.8128C41.3424 20.632 41.2506 19.4483 41.0085 18.291C40.7769 17.4401 40.3484 16.6556 39.7577 16.0008C39.2944 15.4713 38.7245 15.0456 38.0854 14.7514C37.5379 14.4979 36.9618 14.3113 36.3695 14.1958C36.1341 14.1573 35.8956 14.1396 35.657 14.1429M35.0926 26.4462L34.7801 26.4463L34.7767 16.8713L34.8174 16.8713C35.4616 16.7966 36.1136 16.9126 36.6925 17.205C37.1166 17.5434 37.4622 17.9698 37.7054 18.4547C37.968 18.965 38.1194 19.5252 38.1498 20.0983C38.1781 20.7858 38.1502 21.3483 38.1504 21.8139C38.1621 22.3502 38.1278 22.8866 38.0478 23.417C37.9497 23.961 37.7719 24.4876 37.5202 24.9797C37.2359 25.4387 36.8474 25.8243 36.3863 26.1051C36.0011 26.3553 35.5443 26.4718 35.0864 26.4368M50.9571 14.1968L43.3633 14.1995L43.3686 29.1995L46.5811 29.1984L46.579 23.2484L50.6415 23.247L50.6405 20.4595L46.578 20.4609L46.5768 16.9859L50.9518 16.9843L50.9508 14.1968" fill="#464648"/>
<path d="M64.572 63.3072C64.572 63.3072 74.5339 61.4974 74.5351 64.9005C74.5363 68.3036 68.3639 66.9214 64.572 63.3072ZM57.2065 63.5691C55.6235 63.9185 54.0811 64.4312 52.6039 65.0989L53.8529 62.286C55.1019 59.473 56.3974 55.6382 56.3974 55.6382C57.8862 58.1505 59.6228 60.5075 61.5812 62.6738C60.1075 62.8939 58.6471 63.1949 57.2065 63.5754L57.2065 63.5691ZM53.2556 43.258C53.2545 40.2924 54.2136 39.4827 54.9605 39.4824C55.7073 39.4822 56.5481 39.8412 56.5771 42.4162C56.3344 45.0055 55.7931 47.5581 54.9642 50.0231C53.8229 47.9555 53.2334 45.6289 53.2524 43.2674L53.2556 43.258ZM38.7391 76.1257C35.6822 74.2987 45.1458 68.6672 46.8614 68.4853C46.852 68.4884 41.9398 78.0371 38.7391 76.1257ZM77.4446 65.3026C77.4133 64.9901 77.1308 61.5308 70.9746 61.6799C68.4085 61.6358 65.8434 61.8176 63.3092 62.2232C60.8517 59.7514 58.7361 56.9617 57.0187 53.9286C58.0982 50.801 58.7519 47.5424 58.9622 44.2404C58.8702 40.4904 57.9726 38.3407 55.0976 38.373C52.2226 38.4053 51.8047 40.9211 52.1842 44.6647C52.5552 47.1804 53.2547 49.6365 54.2649 51.9702C54.2649 51.9702 52.9382 56.105 51.1834 60.2182C49.4286 64.3313 48.2294 66.488 48.2294 66.488C45.1753 67.4821 42.3007 68.9603 39.7153 70.866C37.1412 73.2638 36.095 75.1048 37.4519 76.9449C38.6212 78.532 42.7119 78.8899 46.3665 74.098C48.305 71.6205 50.0787 69.0185 51.6762 66.3086C51.6762 66.3086 57.2507 64.7785 58.9849 64.3591C60.7191 63.9398 62.8159 63.6078 62.8159 63.6078C62.8159 63.6078 67.9083 68.7278 72.8176 68.5449C77.727 68.3619 77.4885 65.6088 77.4571 65.3088" fill="#DD2025"/>
<path d="M71.3379 6.49744L71.3444 24.8506L88.9475 24.8443L71.3379 6.49744Z" fill="#909090"/>
<path d="M71.582 6.25671L71.5885 24.6098L89.1917 24.6036L71.582 6.25671Z" fill="#F4F4F4"/>
<path d="M24.5356 13.9525L20.4512 13.954L20.4565 28.954L23.6815 28.9528L23.6797 23.8966L24.3922 23.937C25.0817 23.9272 25.7649 23.8034 26.414 23.5706C26.9846 23.3767 27.509 23.0669 27.9543 22.6607C28.4075 22.2765 28.7629 21.7901 28.9913 21.2416C29.3073 20.3312 29.419 19.3624 29.3184 18.404C29.3003 17.7191 29.18 17.0409 28.9614 16.3916C28.7645 15.9223 28.4717 15.4993 28.1019 15.1497C27.7321 14.8 27.2934 14.5315 26.8138 14.3611C26.3985 14.2067 25.9679 14.0968 25.5293 14.0334C25.1997 13.9799 24.8664 13.9528 24.5324 13.9525M23.9444 21.1215L23.6662 21.1216L23.6646 16.4966L24.2708 16.4964C24.537 16.4771 24.8041 16.5179 25.0524 16.6157C25.3008 16.7135 25.5239 16.8659 25.7054 17.0615C26.0816 17.5645 26.2827 18.1769 26.2779 18.8051C26.2782 19.5738 26.2784 20.2707 25.5849 20.7615C25.0853 21.037 24.5163 21.1609 23.9475 21.1184M35.4137 13.9081C35.0668 13.9082 34.7293 13.9333 34.4918 13.9428L33.7574 13.9618L31.3199 13.9626L31.3253 28.9626L34.194 28.9616C35.2902 28.9894 36.3813 28.8033 37.4063 28.4136C38.2316 28.0874 38.962 27.5596 39.5308 26.8785C40.0882 26.1944 40.4861 25.3946 40.6956 24.5374C40.9417 23.5684 41.0611 22.5715 41.0508 21.5717C41.1115 20.3909 41.0197 19.2072 40.7776 18.0499C40.546 17.199 40.1175 16.4145 39.5268 15.7597C39.0635 15.2302 38.4936 14.8045 37.8545 14.5103C37.307 14.2568 36.7309 14.0702 36.1387 13.9547C35.9032 13.9162 35.6648 13.8985 35.4262 13.9018M34.8618 26.2051L34.5493 26.2052L34.5459 16.6302L34.5865 16.6302C35.2307 16.5555 35.8827 16.6715 36.4616 16.9639C36.8857 17.3023 37.2313 17.7287 37.4746 18.2136C37.7371 18.7239 37.8886 19.2841 37.9189 19.8572C37.9473 20.5447 37.9194 21.1072 37.9195 21.5728C37.9313 22.1091 37.897 22.6455 37.817 23.176C37.7188 23.7199 37.5411 24.2465 37.2894 24.7386C37.005 25.1976 36.6165 25.5832 36.1554 25.864C35.7702 26.1142 35.3135 26.2308 34.8555 26.1958M50.7168 13.9558L43.1231 13.9584L43.1284 28.9584L46.3409 28.9573L46.3388 23.0073L50.4013 23.0059L50.4003 20.2184L46.3378 20.2198L46.3366 16.7448L50.7116 16.7433L50.7106 13.9558" fill="white"/>
</svg>
