<svg width="101" height="102" viewBox="0 0 101 102" fill="none" xmlns="http://www.w3.org/2000/svg">
<path fill-rule="evenodd" clip-rule="evenodd" d="M10.8583 46.407C10.7917 41.7663 11.6481 37.1586 13.3779 32.8519C15.1077 28.5451 17.6763 24.6251 20.9344 21.3198C24.1926 18.0145 28.0753 15.3898 32.3567 13.5983C36.6382 11.8069 41.2331 10.8843 45.8743 10.8843C50.5154 10.8843 55.1103 11.8069 59.3918 13.5983C63.6733 15.3898 67.5559 18.0145 70.8141 21.3198C74.0722 24.6251 76.6408 28.5451 78.3706 32.8519C80.1004 37.1586 80.9569 41.7663 80.8902 46.407C80.758 55.6066 77.0107 64.3847 70.4583 70.8436C63.9059 77.3025 55.0749 80.9234 45.8743 80.9234C36.6736 80.9234 27.8426 77.3025 21.2902 70.8436C14.7379 64.3847 10.9905 55.6066 10.8583 46.407ZM45.8706 0.536011C38.6345 0.534922 31.5007 2.24607 25.0524 5.52961C18.604 8.81314 13.0242 13.5759 8.76875 19.4286C4.51335 25.2813 1.70319 32.0578 0.56794 39.2044C-0.567309 46.351 0.00456945 53.6648 2.23684 60.5481C4.46911 67.4314 8.29841 73.6888 13.4118 78.8089C18.5252 83.929 24.7775 87.7666 31.6579 90.0079C38.5382 92.2493 45.8512 92.8308 52.9993 91.705C60.1474 90.5792 66.9276 87.778 72.7859 83.5303L88.6546 99.399C90.0102 100.755 91.8491 101.518 93.7669 101.519C95.6847 101.519 97.5242 100.758 98.8807 99.4026C100.237 98.047 101 96.208 101 94.2903C101.001 92.3725 100.24 90.533 98.8843 89.1765L83.0084 73.3078C87.9652 66.4632 90.9345 58.3821 91.5886 49.9564C92.2426 41.5308 90.5559 33.0883 86.7148 25.5607C82.8736 18.0331 77.0272 11.7132 69.821 7.29855C62.6147 2.88387 54.3289 0.546093 45.8779 0.543241L45.8706 0.536011ZM40.4847 29.6418C40.9044 30.0614 41.2373 30.5596 41.4645 31.1079C41.6916 31.6561 41.8085 32.2438 41.8085 32.8373C41.8085 33.4307 41.6916 34.0184 41.4645 34.5667C41.2373 35.1149 40.9044 35.6131 40.4847 36.0327L29.2212 47.3034L40.4847 58.5669C41.3322 59.4144 41.8083 60.5638 41.8083 61.7624C41.8083 62.9609 41.3322 64.1103 40.4847 64.9578C39.6372 65.8053 38.4878 66.2814 37.2893 66.2814C36.0908 66.2814 34.9413 65.8053 34.0938 64.9578L19.6349 50.4989C19.2152 50.0793 18.8823 49.5811 18.6551 49.0328C18.428 48.4846 18.3111 47.8969 18.3111 47.3034C18.3111 46.71 18.428 46.1223 18.6551 45.574C18.8823 45.0258 19.2152 44.5276 19.6349 44.108L34.0938 29.6491C34.5134 29.2294 35.0116 28.8964 35.5599 28.6693C36.1081 28.4421 36.6958 28.3252 37.2893 28.3252C37.8827 28.3252 38.4704 28.4421 39.0187 28.6693C39.5669 28.8964 40.0651 29.2221 40.4847 29.6418ZM58.5584 29.6418C57.7109 28.7944 56.5614 28.3183 55.3629 28.3183C54.1644 28.3183 53.015 28.7944 52.1675 29.6418C51.32 30.4893 50.8439 31.6388 50.8439 32.8373C50.8439 34.0358 51.32 35.1852 52.1675 36.0327L63.431 47.2962L52.1675 58.5669C51.32 59.4144 50.8439 60.5638 50.8439 61.7624C50.8439 62.9609 51.32 64.1103 52.1675 64.9578C53.015 65.8053 54.1644 66.2814 55.3629 66.2814C56.5614 66.2814 57.7109 65.8053 58.5584 64.9578L73.0173 50.4989C73.437 50.0793 73.7699 49.5811 73.9971 49.0328C74.2242 48.4846 74.3411 47.8969 74.3411 47.3034C74.3411 46.71 74.2242 46.1223 73.9971 45.574C73.7699 45.0258 73.437 44.5276 73.0173 44.108L58.5584 29.6418Z" fill="url(#paint0_linear_13_160)"/>
<defs>
<linearGradient id="paint0_linear_13_160" x1="15.5682" y1="16.1042" x2="100.983" y2="84.2675" gradientUnits="userSpaceOnUse">
<stop stop-color="#E22774"/>
<stop offset="1" stop-color="#EB7AA5"/>
</linearGradient>
</defs>
</svg>
